<svg width="16" height="16" viewBox="0 0 16 16" fill="none" xmlns="http://www.w3.org/2000/svg">
<rect x="0.3" y="0.3" width="15.4" height="15.4" rx="3.7" fill="#14213D" stroke="black" stroke-width="0.6"/>
<path d="M13.1171 6.92367L12.3191 4.52967C12.2033 4.18112 11.9807 3.87791 11.6827 3.66313C11.3848 3.44835 11.0268 3.33293 10.6595 3.33325H5.34066C4.97339 3.33293 4.61536 3.44835 4.31743 3.66313C4.01951 3.87791 3.79684 4.18112 3.68108 4.52967L2.88308 6.92367C2.67088 7.01246 2.48966 7.162 2.3622 7.3535C2.23475 7.54499 2.16675 7.76989 2.16675 7.99992V10.9166C2.16675 11.3471 2.40241 11.7193 2.75008 11.9217V13.2499C2.75008 13.4046 2.81154 13.553 2.92094 13.6624C3.03033 13.7718 3.17871 13.8333 3.33341 13.8333H3.91675C4.07146 13.8333 4.21983 13.7718 4.32923 13.6624C4.43862 13.553 4.50008 13.4046 4.50008 13.2499V12.0833H11.5001V13.2499C11.5001 13.4046 11.5615 13.553 11.6709 13.6624C11.7803 13.7718 11.9287 13.8333 12.0834 13.8333H12.6667C12.8215 13.8333 12.9698 13.7718 13.0792 13.6624C13.1886 13.553 13.2501 13.4046 13.2501 13.2499V11.9217C13.4271 11.8202 13.5742 11.6738 13.6766 11.4974C13.779 11.3209 13.8331 11.1206 13.8334 10.9166V7.99992C13.8334 7.76989 13.7654 7.54499 13.638 7.3535C13.5105 7.162 13.3293 7.01246 13.1171 6.92367ZM5.34066 4.49992H10.6589C10.9103 4.49992 11.1332 4.65975 11.2125 4.89892L11.8577 6.83325H4.1425L4.78708 4.89892C4.82579 4.78272 4.90008 4.68164 4.99944 4.61003C5.0988 4.53841 5.21819 4.49989 5.34066 4.49992ZM4.20841 10.3333C4.09347 10.3332 3.97966 10.3105 3.87348 10.2665C3.7673 10.2225 3.67083 10.158 3.58958 10.0767C3.50832 9.99537 3.44388 9.89886 3.39993 9.79265C3.35598 9.68644 3.33338 9.57261 3.33341 9.45767C3.33345 9.34272 3.35613 9.22891 3.40015 9.12273C3.44418 9.01655 3.50868 8.92008 3.58999 8.83883C3.67129 8.75758 3.76781 8.69314 3.87402 8.64919C3.98023 8.60523 4.09405 8.58263 4.209 8.58267C4.44114 8.58275 4.66374 8.67504 4.82784 8.83924C4.99193 9.00345 5.08408 9.22611 5.084 9.45825C5.08392 9.69039 4.99163 9.913 4.82742 10.0771C4.66322 10.2412 4.44056 10.3333 4.20841 10.3333ZM11.7917 10.3333C11.6768 10.3332 11.563 10.3105 11.4568 10.2665C11.3506 10.2225 11.2542 10.158 11.1729 10.0767C11.0917 9.99537 11.0272 9.89886 10.9833 9.79265C10.9393 9.68644 10.9167 9.57261 10.9167 9.45767C10.9168 9.34272 10.9395 9.22891 10.9835 9.12273C11.0275 9.01655 11.092 8.92008 11.1733 8.83883C11.2546 8.75758 11.3511 8.69314 11.4574 8.64919C11.5636 8.60523 11.6774 8.58263 11.7923 8.58267C12.0245 8.58275 12.2471 8.67504 12.4112 8.83924C12.5753 9.00345 12.6674 9.22611 12.6673 9.45825C12.6673 9.69039 12.575 9.913 12.4108 10.0771C12.2466 10.2412 12.0239 10.3333 11.7917 10.3333Z" fill="white"/>
</svg>
