<svg width="32" height="32" viewBox="0 0 32 32" fill="none" xmlns="http://www.w3.org/2000/svg">
<rect width="32" height="32" fill="#14213D"/>
<path d="M26.965 13.6938L25.255 8.56375C25.0069 7.81685 24.5298 7.16713 23.8914 6.70689C23.253 6.24664 22.4858 5.9993 21.6988 6H10.3012C9.51424 5.9993 8.74702 6.24664 8.10861 6.70689C7.47019 7.16713 6.99306 7.81685 6.745 8.56375L5.035 13.6938C4.58028 13.884 4.19195 14.2045 3.91883 14.6148C3.64572 15.0252 3.5 15.5071 3.5 16V22.25C3.5 23.1725 4.005 23.97 4.75 24.4038V27.25C4.75 27.5815 4.8817 27.8995 5.11612 28.1339C5.35054 28.3683 5.66848 28.5 6 28.5H7.25C7.58152 28.5 7.89946 28.3683 8.13388 28.1339C8.3683 27.8995 8.5 27.5815 8.5 27.25V24.75H23.5V27.25C23.5 27.5815 23.6317 27.8995 23.8661 28.1339C24.1005 28.3683 24.4185 28.5 24.75 28.5H26C26.3315 28.5 26.6495 28.3683 26.8839 28.1339C27.1183 27.8995 27.25 27.5815 27.25 27.25V24.4038C27.6292 24.1863 27.9445 23.8727 28.1639 23.4946C28.3834 23.1164 28.4993 22.6872 28.5 22.25V16C28.5 15.5071 28.3543 15.0252 28.0812 14.6148C27.808 14.2045 27.4197 13.884 26.965 13.6938ZM10.3012 8.5H21.6975C22.2363 8.5 22.7137 8.8425 22.8837 9.355L24.2663 13.5H7.73375L9.115 9.355C9.19794 9.10599 9.35715 8.88941 9.57006 8.73595C9.78298 8.58249 10.0388 8.49994 10.3012 8.5ZM7.875 21C7.62869 20.9999 7.38481 20.9513 7.15728 20.857C6.92975 20.7627 6.72303 20.6244 6.54892 20.4502C6.37481 20.276 6.23672 20.0692 6.14253 19.8416C6.04835 19.614 5.99992 19.3701 6 19.1238C6.00008 18.8774 6.04868 18.6336 6.14301 18.406C6.23735 18.1785 6.37557 17.9718 6.5498 17.7977C6.72403 17.6236 6.93084 17.4855 7.15843 17.3913C7.38602 17.2971 7.62994 17.2487 7.87625 17.2488C8.3737 17.2489 8.8507 17.4467 9.20233 17.7986C9.55396 18.1504 9.75142 18.6276 9.75125 19.125C9.75108 19.6224 9.55332 20.0995 9.20145 20.4511C8.84959 20.8027 8.37245 21.0002 7.875 21ZM24.125 21C23.8787 20.9999 23.6348 20.9513 23.4073 20.857C23.1797 20.7627 22.973 20.6244 22.7989 20.4502C22.6248 20.276 22.4867 20.0692 22.3925 19.8416C22.2984 19.614 22.2499 19.3701 22.25 19.1238C22.2501 18.8774 22.2987 18.6336 22.393 18.406C22.4873 18.1785 22.6256 17.9718 22.7998 17.7977C22.974 17.6236 23.1808 17.4855 23.4084 17.3913C23.636 17.2971 23.8799 17.2487 24.1262 17.2488C24.6237 17.2489 25.1007 17.4467 25.4523 17.7986C25.804 18.1504 26.0014 18.6276 26.0012 19.125C26.0011 19.6224 25.8033 20.0995 25.4515 20.4511C25.0996 20.8027 24.6224 21.0002 24.125 21Z" fill="white"/>
</svg>
