<svg width="125" height="127" viewBox="0 0 125 127" fill="none" xmlns="http://www.w3.org/2000/svg">
<circle cx="62.5" cy="62.5" r="62" stroke="white" stroke-opacity="0.5"/>
<mask id="path-2-outside-1_38_17" maskUnits="userSpaceOnUse" x="48" y="41" width="27" height="37" fill="black">
<rect fill="white" x="48" y="41" width="27" height="37"/>
<path d="M62.7093 76.576C57.4293 76.576 53.2533 74.576 50.1813 70.576L52.9173 68.128C55.6373 71.456 58.9173 73.12 62.7573 73.12C64.8373 73.12 66.5813 72.512 67.9893 71.296C69.3973 70.08 70.1013 68.48 70.1013 66.496C70.1013 64.448 69.2373 62.864 67.5093 61.744C65.7813 60.592 63.5093 60.016 60.6933 60.016H58.5333L57.7653 57.76L68.3733 45.808H51.9573V42.4H73.4133V45.184L62.8533 56.896C66.0533 57.152 68.6933 58.08 70.7733 59.68C72.8853 61.248 73.9413 63.504 73.9413 66.448C73.9413 69.392 72.8533 71.824 70.6773 73.744C68.5333 75.632 65.8773 76.576 62.7093 76.576Z"/>
</mask>
<path d="M62.7093 76.576C57.4293 76.576 53.2533 74.576 50.1813 70.576L52.9173 68.128C55.6373 71.456 58.9173 73.12 62.7573 73.12C64.8373 73.12 66.5813 72.512 67.9893 71.296C69.3973 70.08 70.1013 68.48 70.1013 66.496C70.1013 64.448 69.2373 62.864 67.5093 61.744C65.7813 60.592 63.5093 60.016 60.6933 60.016H58.5333L57.7653 57.76L68.3733 45.808H51.9573V42.4H73.4133V45.184L62.8533 56.896C66.0533 57.152 68.6933 58.08 70.7733 59.68C72.8853 61.248 73.9413 63.504 73.9413 66.448C73.9413 69.392 72.8533 71.824 70.6773 73.744C68.5333 75.632 65.8773 76.576 62.7093 76.576Z" fill="white" fill-opacity="0.5"/>
<path d="M50.1813 70.576L49.5145 69.8308L48.8231 70.4493L49.3882 71.1851L50.1813 70.576ZM52.9173 68.128L53.6915 67.4952L53.0298 66.6855L52.2505 67.3828L52.9173 68.128ZM67.9893 71.296L68.6429 72.0528L67.9893 71.296ZM67.5092 61.744L66.9545 62.5761L66.9654 62.5832L67.5092 61.744ZM58.5332 60.016L57.5866 60.3383L57.8173 61.016H58.5332V60.016ZM57.7653 57.76L57.0173 57.0962L56.6311 57.5314L56.8186 58.0823L57.7653 57.76ZM68.3733 45.808L69.1212 46.4718L70.5979 44.808H68.3733V45.808ZM51.9572 45.808H50.9572V46.808H51.9572V45.808ZM51.9572 42.4V41.4H50.9572V42.4H51.9572ZM73.4133 42.4H74.4133V41.4H73.4133V42.4ZM73.4133 45.184L74.1559 45.8536L74.4133 45.5683V45.184H73.4133ZM62.8532 56.896L62.1106 56.2264L60.7537 57.7312L62.7735 57.8928L62.8532 56.896ZM70.7733 59.68L70.1635 60.4726L70.1703 60.4778L70.1772 60.4829L70.7733 59.68ZM70.6773 73.744L71.3381 74.4945L71.3389 74.4938L70.6773 73.744ZM62.7093 75.576C57.723 75.576 53.847 73.7073 50.9743 69.9669L49.3882 71.1851C52.6595 75.4447 57.1355 77.576 62.7093 77.576V75.576ZM50.848 71.3212L53.584 68.8732L52.2505 67.3828L49.5145 69.8308L50.848 71.3212ZM52.143 68.7608C55.0273 72.2899 58.5789 74.12 62.7573 74.12V72.12C59.2556 72.12 56.2472 70.6221 53.6915 67.4952L52.143 68.7608ZM62.7573 74.12C65.0469 74.12 67.0315 73.4444 68.6429 72.0528L67.3356 70.5392C66.131 71.5796 64.6276 72.12 62.7573 72.12V74.12ZM68.6429 72.0528C70.2869 70.633 71.1012 68.7487 71.1012 66.496H69.1012C69.1012 68.2113 68.5076 69.527 67.3356 70.5392L68.6429 72.0528ZM71.1012 66.496C71.1012 64.1068 70.0637 62.208 68.0531 60.9048L66.9654 62.5832C68.4108 63.52 69.1012 64.7892 69.1012 66.496H71.1012ZM68.0639 60.9119C66.1227 59.6178 63.6382 59.016 60.6933 59.016V61.016C63.3803 61.016 65.4398 61.5662 66.9546 62.576L68.0639 60.9119ZM60.6933 59.016H58.5332V61.016H60.6933V59.016ZM59.4799 59.6937L58.7119 57.4377L56.8186 58.0823L57.5866 60.3383L59.4799 59.6937ZM58.5132 58.4238L69.1212 46.4718L67.6253 45.1442L57.0173 57.0962L58.5132 58.4238ZM68.3733 44.808H51.9572V46.808H68.3733V44.808ZM52.9572 45.808V42.4H50.9572V45.808H52.9572ZM51.9572 43.4H73.4133V41.4H51.9572V43.4ZM72.4133 42.4V45.184H74.4133V42.4H72.4133ZM72.6706 44.5144L62.1106 56.2264L63.5959 57.5656L74.1559 45.8536L72.6706 44.5144ZM62.7735 57.8928C65.8241 58.1369 68.2679 59.0144 70.1635 60.4726L71.383 58.8874C69.1186 57.1456 66.2824 56.1671 62.933 55.8992L62.7735 57.8928ZM70.1772 60.4829C72.0021 61.8378 72.9413 63.7771 72.9413 66.448H74.9413C74.9413 63.2309 73.7684 60.6582 71.3694 58.8771L70.1772 60.4829ZM72.9413 66.448C72.9413 69.1098 71.9729 71.2671 70.0156 72.9942L71.3389 74.4938C73.7336 72.3809 74.9413 69.6741 74.9413 66.448H72.9413ZM70.0164 72.9935C68.0753 74.7028 65.6624 75.576 62.7093 75.576V77.576C66.0921 77.576 68.9912 76.5612 71.3381 74.4945L70.0164 72.9935Z" fill="white" fill-opacity="0.5" mask="url(#path-2-outside-1_38_17)"/>
<circle cx="31.5" cy="114.5" r="12.5" fill="#14213D"/>
<circle cx="31.5" cy="114.5" r="12" stroke="white" stroke-opacity="0.5"/>
</svg>
