<svg width="125" height="127" viewBox="0 0 125 127" fill="none" xmlns="http://www.w3.org/2000/svg">
<circle cx="62.5" cy="62.5" r="62" stroke="white" stroke-opacity="0.5"/>
<path d="M50.4368 76V73.072L62.6288 62.32C65.2528 60.016 67.0768 58.096 68.1008 56.56C69.1248 55.024 69.6368 53.424 69.6368 51.76C69.6368 49.84 68.9808 48.288 67.6688 47.104C66.3568 45.92 64.7568 45.328 62.8688 45.328C61.0448 45.328 59.4288 45.792 58.0208 46.72C56.6448 47.648 55.2528 49.104 53.8448 51.088L51.0608 49.072C52.6928 46.64 54.4208 44.848 56.2448 43.696C58.0688 42.512 60.3728 41.92 63.1568 41.92C66.1648 41.92 68.6448 42.832 70.5968 44.656C72.5808 46.448 73.5728 48.736 73.5728 51.52C73.5728 53.824 72.9488 55.872 71.7008 57.664C70.4528 59.456 68.2448 61.76 65.0768 64.576L56.1008 72.544H73.9088V76H50.4368Z" fill="white" fill-opacity="0.5"/>
<circle cx="98.5" cy="114.5" r="12.5" fill="#14213D"/>
<circle cx="98.5" cy="114.5" r="12" stroke="white" stroke-opacity="0.5"/>
</svg>
