<svg width="125" height="125" viewBox="0 0 125 125" fill="none" xmlns="http://www.w3.org/2000/svg">
<circle cx="62.5" cy="62.5" r="62" stroke="white" stroke-opacity="0.5"/>
<mask id="path-2-outside-1_38_11" maskUnits="userSpaceOnUse" x="54" y="41" width="14" height="36" fill="black">
<rect fill="white" x="54" y="41" width="14" height="36"/>
<path d="M62.4904 76V46.096L56.1544 48.064L55.2424 44.992L63.4504 42.16H66.2344V76H62.4904Z"/>
</mask>
<path d="M62.4904 76V46.096L56.1544 48.064L55.2424 44.992L63.4504 42.16H66.2344V76H62.4904Z" fill="white" fill-opacity="0.5"/>
<path d="M62.4904 76H61.4904V77H62.4904V76ZM62.4904 46.096H63.4904V44.7383L62.1938 45.141L62.4904 46.096ZM56.1544 48.064L55.1958 48.3486L55.484 49.3194L56.4511 49.019L56.1544 48.064ZM55.2424 44.992L54.9163 44.0467L54.0114 44.3589L54.2838 45.2766L55.2424 44.992ZM63.4504 42.16V41.16H63.2828L63.1243 41.2147L63.4504 42.16ZM66.2344 42.16H67.2344V41.16H66.2344V42.16ZM66.2344 76V77H67.2344V76H66.2344ZM63.4904 76V46.096H61.4904V76H63.4904ZM62.1938 45.141L55.8578 47.109L56.4511 49.019L62.7871 47.051L62.1938 45.141ZM57.1131 47.7794L56.2011 44.7074L54.2838 45.2766L55.1958 48.3486L57.1131 47.7794ZM55.5686 45.9373L63.7766 43.1053L63.1243 41.2147L54.9163 44.0467L55.5686 45.9373ZM63.4504 43.16H66.2344V41.16H63.4504V43.16ZM65.2344 42.16V76H67.2344V42.16H65.2344ZM66.2344 75H62.4904V77H66.2344V75Z" fill="white" fill-opacity="0.5" mask="url(#path-2-outside-1_38_11)"/>
<circle cx="98.5" cy="12.5" r="12.5" fill="#FCA311"/>
<circle cx="98.5" cy="12.5" r="12" stroke="white" stroke-opacity="0.5"/>
</svg>
