<svg width="125" height="127" viewBox="0 0 125 127" fill="none" xmlns="http://www.w3.org/2000/svg">
<circle cx="62.5" cy="62.5" r="62" stroke="white" stroke-opacity="0.5"/>
<mask id="path-2-outside-1_38_21" maskUnits="userSpaceOnUse" x="47" y="43" width="31" height="36" fill="black">
<rect fill="white" x="47" y="43" width="31" height="36"/>
<path d="M67.1344 78V70.032H49.4224L48.4624 67.296L67.4704 44.16H70.7824V66.864H76.0144V70.032H70.7824V78H67.1344ZM53.0224 66.864H67.1344V49.536L53.0224 66.864Z"/>
</mask>
<path d="M67.1344 78V70.032H49.4224L48.4624 67.296L67.4704 44.16H70.7824V66.864H76.0144V70.032H70.7824V78H67.1344ZM53.0224 66.864H67.1344V49.536L53.0224 66.864Z" fill="white" fill-opacity="0.5"/>
<path d="M67.1344 78H66.1344V79H67.1344V78ZM67.1344 70.032H68.1344V69.032H67.1344V70.032ZM49.4224 70.032L48.4788 70.3631L48.7135 71.032H49.4224V70.032ZM48.4624 67.296L47.6898 66.6612L47.3325 67.096L47.5188 67.6271L48.4624 67.296ZM67.4704 44.16V43.16H66.9978L66.6978 43.5252L67.4704 44.16ZM70.7824 44.16H71.7824V43.16H70.7824V44.16ZM70.7824 66.864H69.7824V67.864H70.7824V66.864ZM76.0144 66.864H77.0144V65.864H76.0144V66.864ZM76.0144 70.032V71.032H77.0144V70.032H76.0144ZM70.7824 70.032V69.032H69.7824V70.032H70.7824ZM70.7824 78V79H71.7824V78H70.7824ZM53.0224 66.864L52.247 66.2325L50.9184 67.864H53.0224V66.864ZM67.1344 66.864V67.864H68.1344V66.864H67.1344ZM67.1344 49.536H68.1344V46.7245L66.359 48.9045L67.1344 49.536ZM68.1344 78V70.032H66.1344V78H68.1344ZM67.1344 69.032H49.4224V71.032H67.1344V69.032ZM50.366 69.7009L49.406 66.9649L47.5188 67.6271L48.4788 70.3631L50.366 69.7009ZM49.2351 67.9308L68.2431 44.7948L66.6978 43.5252L47.6898 66.6612L49.2351 67.9308ZM67.4704 45.16H70.7824V43.16H67.4704V45.16ZM69.7824 44.16V66.864H71.7824V44.16H69.7824ZM70.7824 67.864H76.0144V65.864H70.7824V67.864ZM75.0144 66.864V70.032H77.0144V66.864H75.0144ZM76.0144 69.032H70.7824V71.032H76.0144V69.032ZM69.7824 70.032V78H71.7824V70.032H69.7824ZM70.7824 77H67.1344V79H70.7824V77ZM53.0224 67.864H67.1344V65.864H53.0224V67.864ZM68.1344 66.864V49.536H66.1344V66.864H68.1344ZM66.359 48.9045L52.247 66.2325L53.7978 67.4955L67.9098 50.1675L66.359 48.9045Z" fill="white" fill-opacity="0.5" mask="url(#path-2-outside-1_38_21)"/>
<circle cx="30.5" cy="12.5" r="12.5" fill="#FCA311"/>
<circle cx="30.5" cy="12.5" r="12" stroke="white" stroke-opacity="0.5"/>
</svg>
